<svg xmlns="http://www.w3.org/2000/svg" viewBox="0 0 32 32">
  <rect width="32" height="32" rx="8" fill="#050505"/>
  <circle cx="16" cy="16" r="4.25" fill="none" stroke="#ea580c" stroke-width="2.5" />
  <rect x="14.8" y="4" width="2.4" height="5" rx="1.2" fill="#ea580c" />
  <rect x="14.8" y="4" width="2.4" height="5" rx="1.2" transform="rotate(45 16 16)" fill="#ea580c" />
  <rect x="14.8" y="4" width="2.4" height="5" rx="1.2" transform="rotate(90 16 16)" fill="#ea580c" />
  <rect x="14.8" y="4" width="2.4" height="5" rx="1.2" transform="rotate(135 16 16)" fill="#ea580c" />
  <rect x="14.8" y="4" width="2.4" height="5" rx="1.2" transform="rotate(180 16 16)" fill="#ea580c" />
  <rect x="14.8" y="4" width="2.4" height="5" rx="1.2" transform="rotate(225 16 16)" fill="#ea580c" />
  <rect x="14.8" y="4" width="2.4" height="5" rx="1.2" transform="rotate(270 16 16)" fill="#ea580c" />
  <rect x="14.8" y="4" width="2.4" height="5" rx="1.2" transform="rotate(315 16 16)" fill="#ea580c" />
</svg>
