<?xml version="1.0" encoding="utf-8"?>
<!DOCTYPE svg PUBLIC "-//W3C//DTD SVG 1.0//EN" "http://www.w3.org/TR/2001/REC-SVG-20010904/DTD/svg10.dtd">
<svg version="1.0" xmlns="http://www.w3.org/2000/svg" width="750px" height="750px" viewBox="0 0 750 750" preserveAspectRatio="xMidYMid meet">
 <g fill="#0e0e0e">
  <path d="M0 375 c0 -375 0 -375 375 -375 375 0 375 0 375 375 0 375 0 375 -375 375 -375 0 -375 0 -375 -375z m138.21 248.58 c4.32 -2.05 7.84 -5.71 10.03 -10.47 1.54 -3.30 1.54 -4.10 1.54 -52.81 0 -46.88 -0.07 -49.66 -1.39 -53.03 -2.78 -7.32 -10.99 -13.62 -17.72 -13.62 -3.88 0 -11.43 3.74 -13.84 6.88 -0.95 1.32 -2.56 3.96 -3.44 6.01 -1.68 3.59 -1.68 3.59 -1.68 53.03 0 46 0.07 49.66 1.32 52.37 3.15 6.96 7.62 11.21 13.84 13.18 3.74 1.25 6.30 0.88 11.35 -1.54z m80.57 0.44 c4.25 -1.83 8.64 -6.67 10.47 -11.43 1.46 -3.96 1.46 -4.83 1.46 -141.21 0 -120.19 -0.15 -137.62 -1.10 -140.84 -2.20 -7.47 -10.99 -14.36 -18.31 -14.36 -6.59 0 -14.36 6.30 -17.21 13.92 -1.46 3.96 -1.46 5.13 -1.32 142.16 0.22 138.21 0.22 138.21 2.20 141.87 1.76 3.30 4.47 6.37 8.13 9.16 1.98 1.46 7.91 2.86 10.40 2.42 1.25 -0.22 3.59 -0.95 5.27 -1.68z m322.56 -0.07 c4.25 -2.12 7.18 -4.98 9.30 -9.01 1.98 -3.74 1.98 -3.74 2.20 -141.80 0.15 -100.49 0 -139.09 -0.59 -141.94 -1.68 -7.91 -10.18 -15.09 -17.72 -15.01 -7.03 0.07 -14.72 5.86 -17.43 13.11 -1.46 4.03 -1.46 4.39 -1.32 142.97 0.22 138.94 0.22 138.94 2.34 142.82 2.64 4.69 6.67 8.06 11.72 9.81 4.17 1.39 7.32 1.17 11.50 -0.95z m81.23 0 c3.30 -1.61 8.28 -6.96 10.03 -10.69 1.25 -2.56 1.32 -6.30 1.32 -53.32 0 -50.54 0 -50.54 -1.68 -54.20 -2.05 -4.47 -4.54 -7.18 -8.94 -9.74 -2.64 -1.61 -4.25 -1.98 -8.13 -1.98 -4.03 0 -5.35 0.37 -8.35 2.20 -1.98 1.25 -4.69 3.66 -6.01 5.35 -4.69 6.23 -4.69 5.71 -4.47 59.55 0.22 48.63 0.22 48.63 1.90 52.29 4.83 10.55 15.38 15.09 24.32 10.55z m-322.49 -85.40 c3.81 -1.76 6.81 -4.91 9.45 -9.74 1.32 -2.42 1.39 -4.83 1.61 -34.20 0.22 -31.71 0.22 -31.71 61.67 -31.71 61.45 0 61.45 0 61.67 30.98 0.22 30.40 0.22 30.98 1.90 34.20 3.74 7.62 10.40 12.60 16.92 12.67 7.10 0.07 14.79 -5.64 17.65 -13.11 1.46 -4.03 1.46 -4.69 1.46 -163.18 0 -139.75 -0.15 -159.59 -1.10 -162.82 -2.20 -7.32 -10.84 -14.36 -17.65 -14.28 -6.23 0.07 -13.26 5.05 -16.99 12.08 -1.98 3.81 -1.98 3.81 -2.20 115.36 -0.15 111.47 -0.15 111.47 -61.67 111.47 -61.52 0 -61.52 0 -61.67 -111.47 -0.22 -111.55 -0.22 -111.55 -1.98 -115.36 -3 -6.74 -10.33 -11.87 -16.85 -11.94 -6.67 0 -14.79 6.23 -17.43 13.40 -0.66 1.76 -0.88 41.97 -0.88 163.11 -0.07 159.96 0 160.77 1.46 164.06 2.20 4.83 4.69 7.76 8.42 9.96 6.01 3.52 9.59 3.66 16.19 0.51z m79.03 -181.79 c4.25 -1.98 8.13 -5.64 10.40 -9.89 1.98 -3.74 1.98 -3.74 2.20 -120.70 0.15 -116.46 0.15 -116.97 -1.32 -121 -2.93 -7.69 -12.08 -14.36 -18.46 -13.33 -7.25 1.17 -14.06 6.88 -16.48 13.92 -1.25 3.52 -1.32 10.33 -1.32 119.82 0 116.09 0 116.09 1.90 120.19 4.69 9.96 14.72 14.79 23.07 10.99z"/>
 </g>
 <g fill="#fffffe">
  <path d="M124.66 627.39 c-6.30 -2.05 -10.69 -6.30 -13.84 -13.26 -1.25 -2.71 -1.32 -6.45 -1.32 -54.57 0 -51.64 0 -51.64 1.68 -55.22 2.64 -5.71 4.91 -8.20 9.74 -10.62 11.50 -5.71 25.12 -0.51 29.66 11.35 1.32 3.44 1.39 6.23 1.39 55.22 0 50.98 0 51.71 -1.54 55 -4.54 9.81 -16.11 15.23 -25.78 12.08z"/>
  <path d="M205.66 627.47 c-1.90 -0.59 -4.03 -1.46 -4.76 -1.98 -3.66 -2.78 -6.37 -5.86 -8.13 -9.16 -1.98 -3.66 -1.98 -3.66 -2.20 -144.07 -0.15 -139.23 -0.15 -140.41 1.32 -144.36 4.47 -11.87 17.07 -17.36 28.42 -12.30 5.05 2.27 10.03 7.76 11.50 12.74 0.95 3.22 1.10 20.95 1.10 143.04 0 138.57 0 139.45 -1.46 143.41 -1.83 4.76 -6.23 9.59 -10.62 11.50 -4.17 1.83 -10.84 2.34 -15.16 1.17z"/>
  <path d="M527.64 627.10 c-5.13 -1.83 -9.16 -5.20 -11.72 -9.81 -2.12 -3.88 -2.12 -3.88 -2.34 -145.02 -0.15 -140.77 -0.15 -141.14 1.32 -145.17 1.83 -4.69 5.93 -9.16 10.84 -11.57 5.20 -2.49 13.11 -2.34 18.24 0.37 5.05 2.64 9.38 8.06 10.47 13.11 0.59 2.86 0.73 42.04 0.59 144.14 -0.22 140.26 -0.22 140.26 -2.20 143.99 -4.76 9.01 -15.75 13.40 -25.20 9.96z"/>
  <path d="M609.30 627.47 c-5.79 -1.61 -10.47 -5.86 -13.26 -11.87 -1.68 -3.66 -1.68 -3.66 -1.90 -54.49 -0.22 -56.32 -0.29 -55.52 4.47 -61.74 1.32 -1.68 4.03 -4.10 6.01 -5.35 3.30 -2.05 4.03 -2.20 10.55 -2.20 6.30 0 7.40 0.22 10.33 1.98 4.39 2.56 6.88 5.27 8.94 9.74 1.68 3.66 1.68 3.66 1.68 56.40 0 49.15 -0.07 52.95 -1.32 55.52 -1.76 3.81 -6.81 9.08 -10.18 10.84 -3.59 1.83 -10.91 2.42 -15.31 1.17z"/>
  <path d="M287.33 542.80 c-6.08 -1.54 -11.13 -6.08 -14.06 -12.52 -1.46 -3.30 -1.54 -4.03 -1.46 -166.26 0 -122.83 0.22 -163.55 0.88 -165.31 1.76 -4.76 5.20 -8.57 10.11 -11.21 3.96 -2.12 5.42 -2.49 9.45 -2.49 8.35 0 15.82 4.76 19.12 12.23 1.76 3.81 1.76 3.81 1.98 115.36 0.15 111.47 0.15 111.47 59.47 111.47 59.33 0 59.33 0 59.47 -111.47 0.22 -111.55 0.22 -111.55 2.20 -115.36 5.27 -9.89 15.45 -14.58 25.27 -11.50 3.30 1.03 5.20 2.27 8.42 5.42 7.10 7.10 6.45 -10.25 6.45 173.29 0 160.69 0 161.35 -1.46 165.38 -3.15 8.35 -10.47 13.26 -19.78 13.18 -4.69 0 -6.08 -0.29 -9.45 -2.12 -4.32 -2.34 -7.25 -5.57 -9.74 -10.62 -1.68 -3.22 -1.68 -3.81 -1.90 -34.20 -0.22 -30.98 -0.22 -30.98 -59.47 -30.98 -59.25 0 -59.25 0 -59.47 31.71 -0.22 34.94 0 32.96 -5.13 39.48 -3.96 5.05 -14.14 8.20 -20.87 6.52z"/>
  <path d="M369.14 360.35 c-6.52 -1.25 -12.23 -5.86 -15.31 -12.38 -1.90 -4.10 -1.90 -4.10 -1.90 -122.39 0 -111.62 0.07 -118.51 1.32 -122.02 3.96 -11.28 17.36 -17.36 27.83 -12.52 5.27 2.42 9.59 6.88 11.50 11.94 1.46 4.03 1.46 4.54 1.32 123.19 -0.22 119.17 -0.22 119.17 -2.20 122.90 -4.32 8.28 -13.84 12.96 -22.56 11.28z"/>
 </g>
</svg>